<?xml version="1.0" encoding="utf-8"?>
<!-- Generator: Adobe Illustrator 16.0.0, SVG Export Plug-In . SVG Version: 6.00 Build 0)  -->
<!DOCTYPE svg PUBLIC "-//W3C//DTD SVG 1.1 Tiny//EN" "http://www.w3.org/Graphics/SVG/1.1/DTD/svg11-tiny.dtd">
<svg version="1.1" baseProfile="tiny" id="Layer_1" xmlns="http://www.w3.org/2000/svg" xmlns:xlink="http://www.w3.org/1999/xlink"
	 x="0px" y="0px" width="24.773px" height="25.625px" viewBox="0 0 24.773 25.625" xml:space="preserve">
<g>
	<path fill-rule="evenodd" fill="#CCCCCC" d="M6.343,0.162h13.31c0.763,0,1.471,0.293,1.945,0.768
		c0.471,0.496,0.764,1.115,0.764,1.879v20.023c0,0.682-0.293,1.381-0.764,1.863c-0.475,0.486-1.183,0.768-1.945,0.768H6.343
		c-0.747,0-1.377-0.281-1.851-0.768c-0.499-0.482-0.775-1.182-0.775-1.863v-2.148H2.403c-0.267,0-0.49-0.137-0.49-0.408
		c0-0.289,0.224-0.428,0.49-0.428h1.313v-4.09H2.403c-0.267,0-0.49-0.207-0.49-0.48c0-0.205,0.224-0.41,0.49-0.41h1.313v-4.096
		H2.403c-0.267,0-0.49-0.199-0.49-0.408c0-0.289,0.224-0.496,0.49-0.496h1.313V5.775H2.403c-0.267,0-0.49-0.205-0.49-0.41
		c0-0.273,0.224-0.48,0.49-0.48h1.313V2.809c0-0.764,0.276-1.383,0.775-1.879C4.966,0.455,5.596,0.162,6.343,0.162L6.343,0.162z
		 M14.803,13.535L14.803,13.535v0.158c0.547,0.338,1.045,0.471,1.453,0.678c1.463,0.568,2.215,0.906,2.215,3.459
		c0,0.293-0.2,0.502-0.407,0.502H8.016c-0.272,0-0.494-0.209-0.494-0.502c0-2.689,0.768-2.891,2.215-3.459
		c0.435-0.207,0.907-0.34,1.538-0.678v-0.07c-0.431-0.352-0.561-0.836-0.631-1.404c-0.065,0-0.065-0.062-0.141-0.129
		c-0.07-0.074-0.07-0.201-0.07-0.277v-0.066c-0.063-0.064-0.063-0.135-0.063-0.201l-0.066-0.072
		c-0.07-0.293-0.207-0.701,0.066-1.039c-0.066-0.422-0.066-0.844,0-1.268c0.063-0.539,0.345-1.02,1.042-1.311
		c0.062-0.137,0.207-0.27,0.341-0.344c0.273-0.129,0.562-0.199,0.902-0.199c0.268,0,0.617,0.07,0.972,0.133
		c0.906,0.211,1.793,0.701,2.015,1.451c0.134,0.43,0.067,1.039,0,1.467c0.341,0.277,0.134,0.816,0.067,1.109v0.072
		c-0.067,0.066-0.067,0.137-0.067,0.201l-0.073,0.066c0,0.145,0,0.203-0.081,0.277l-0.067,0.129
		C15.286,12.719,15.142,13.193,14.803,13.535L14.803,13.535z M13.903,13.965L13.903,13.965v-0.629c0-0.143,0.07-0.277,0.2-0.412
		c0.289-0.137,0.357-0.631,0.501-1.035c0-0.076,0.065-0.143,0.065-0.207c0.064-0.07,0.064-0.137,0.064-0.209l0.068-0.082
		c0,0,0-0.066,0-0.143l0.076-0.068c0,0,0.061-0.066,0.133-0.066c-0.209-0.062-0.342-0.271-0.277-0.473c0,0,0.205-1.051,0.068-1.475
		c-0.133-0.406-0.766-0.744-1.386-0.875c-0.283-0.08-0.557-0.08-0.763-0.08c-0.198,0-0.34,0-0.407,0.08
		c-0.07,0.131-0.144,0.262-0.354,0.336c-0.42,0.133-0.618,0.334-0.688,0.699c-0.064,0.338,0.069,0.883,0.138,1.314
		c0.068,0.131,0,0.264-0.138,0.41c0,0,0,0.062-0.064,0.062c0.064,0.066,0.064,0.211,0.134,0.277v0.082
		c0,0.072,0.068,0.139,0.068,0.209c0.068,0.064,0.068,0.131,0.068,0.207l0.062,0.127c0.146,0.428,0.209,0.834,0.42,0.979
		c0.133,0.135,0.211,0.277,0.211,0.408v0.562c0,0.137-0.078,0.27-0.211,0.406c-0.688,0.428-1.314,0.635-1.865,0.834
		c-0.972,0.346-1.529,0.553-1.601,2.219h9.141c-0.062-1.6-0.616-1.799-1.652-2.219c-0.496-0.199-1.036-0.406-1.741-0.834
		C14.037,14.311,13.903,14.164,13.903,13.965L13.903,13.965z M5.1,19.848L5.1,19.848c0.271,0,0.496,0.139,0.496,0.428
		c0,0.271-0.225,0.408-0.496,0.408H4.559v2.148c0,0.482,0.207,0.902,0.541,1.244c0.337,0.346,0.77,0.475,1.243,0.475h13.31
		c0.496,0,0.963-0.129,1.304-0.475c0.297-0.342,0.501-0.762,0.501-1.244V2.809c0-0.494-0.204-0.904-0.501-1.236
		c-0.341-0.361-0.808-0.568-1.304-0.568H6.343c-0.474,0-0.906,0.207-1.243,0.568C4.766,1.904,4.559,2.314,4.559,2.809v2.076H5.1
		c0.271,0,0.496,0.207,0.496,0.48c0,0.205-0.225,0.41-0.496,0.41H4.559v4.092H5.1c0.271,0,0.496,0.207,0.496,0.496
		c0,0.209-0.225,0.408-0.496,0.408H4.559v4.096H5.1c0.271,0,0.496,0.205,0.496,0.41c0,0.273-0.225,0.48-0.496,0.48H4.559v4.09H5.1z"
		/>
</g>
</svg>
