<?xml version="1.0" encoding="utf-8"?>
<!-- Generator: Adobe Illustrator 16.0.0, SVG Export Plug-In . SVG Version: 6.00 Build 0)  -->
<!DOCTYPE svg PUBLIC "-//W3C//DTD SVG 1.1 Tiny//EN" "http://www.w3.org/Graphics/SVG/1.1/DTD/svg11-tiny.dtd">
<svg version="1.1" baseProfile="tiny" id="Layer_1" xmlns="http://www.w3.org/2000/svg" xmlns:xlink="http://www.w3.org/1999/xlink"
	 x="0px" y="0px" width="24.773px" height="25.625px" viewBox="0 0 24.773 25.625" xml:space="preserve">
<g>
	<path fill-rule="evenodd" fill="#CCCCCC" d="M5.617,2.448h2.424V1.775c0-0.35,0.148-0.639,0.428-0.912
		c0.201-0.199,0.541-0.34,0.9-0.34h5.605c0.338,0,0.676,0.141,0.885,0.34c0.225,0.273,0.354,0.562,0.354,0.912v0.673h2.424
		c0.764,0,1.375,0.3,1.875,0.775c0.477,0.489,0.75,1.1,0.75,1.87v19.579c0,0.222-0.201,0.429-0.41,0.429H3.467
		c-0.199,0-0.408-0.207-0.408-0.429V5.094c0-0.771,0.271-1.381,0.771-1.87C4.305,2.748,4.941,2.448,5.617,2.448L5.617,2.448z
		 M7.018,8.142L7.018,8.142c-0.223,0-0.426-0.219-0.426-0.491c0-0.205,0.203-0.412,0.426-0.412h10.24
		c0.275,0,0.479,0.207,0.479,0.412c0,0.272-0.203,0.491-0.479,0.491H7.018z M7.018,12.572L7.018,12.572
		c-0.223,0-0.426-0.155-0.426-0.422c0-0.206,0.203-0.407,0.426-0.407h10.24c0.275,0,0.479,0.201,0.479,0.407
		c0,0.267-0.203,0.422-0.479,0.422H7.018z M7.018,17.072L7.018,17.072c-0.223,0-0.426-0.215-0.426-0.427
		c0-0.202,0.203-0.415,0.426-0.415h10.24c0.275,0,0.479,0.213,0.479,0.415c0,0.212-0.203,0.427-0.479,0.427H7.018z M12.123,21.283
		L12.123,21.283c-0.201,0-0.404-0.201-0.404-0.479c0-0.206,0.203-0.41,0.404-0.41h5.135c0.275,0,0.479,0.204,0.479,0.41
		c0,0.277-0.203,0.479-0.479,0.479H12.123z M8.943,2.448L8.943,2.448h6.439V1.775c0-0.071-0.07-0.205-0.137-0.274
		c-0.066-0.075-0.137-0.152-0.271-0.152H9.369c-0.137,0-0.225,0.077-0.359,0.152C8.943,1.57,8.943,1.704,8.943,1.775V2.448z
		 M18.637,3.363L18.637,3.363H5.617c-0.402,0-0.887,0.127-1.174,0.485c-0.34,0.274-0.551,0.753-0.551,1.245v19.17h16.484V5.094
		c0-0.492-0.225-0.971-0.492-1.245C19.539,3.49,19.111,3.363,18.637,3.363L18.637,3.363z"/>
</g>
</svg>
