<?xml version="1.0" encoding="utf-8"?>
<!-- Generator: Adobe Illustrator 16.0.0, SVG Export Plug-In . SVG Version: 6.00 Build 0)  -->
<!DOCTYPE svg PUBLIC "-//W3C//DTD SVG 1.1 Tiny//EN" "http://www.w3.org/Graphics/SVG/1.1/DTD/svg11-tiny.dtd">
<svg version="1.1" baseProfile="tiny" id="Layer_1" xmlns="http://www.w3.org/2000/svg" xmlns:xlink="http://www.w3.org/1999/xlink"
	 x="0px" y="0px" width="24.773px" height="25.625px" viewBox="0 0 24.773 25.625" xml:space="preserve">
<g>
	<path fill-rule="evenodd" fill="#CCCCCC" d="M4.567,0.162h3.594h12.414v20.744v0.738h-0.371c-0.441,0-0.822,0.221-1.049,0.459
		c-0.296,0.299-0.443,0.67-0.443,1.129c0,0.371,0.147,0.732,0.443,1.031c0.227,0.234,0.607,0.457,0.975,0.457v0.742H6.518
		c-0.682,0-1.193-0.223-1.66-0.662c-0.362-0.396-0.659-0.982-0.659-1.568v-0.039V0.162H4.567z M14.435,12.898L14.435,12.898
		c-0.218,0.223-0.365,0.359-0.514,0.438c-0.222,0.148-0.459,0.148-0.605,0.148c-0.224,0-0.443,0-0.665-0.148
		c-0.147-0.143-0.369-0.291-0.46-0.588c-0.147-0.221-0.221-0.531-0.221-0.828c0-0.371,0.073-0.832,0.312-1.199
		c0.222-0.371,0.443-0.662,0.742-0.83c0.292-0.227,0.603-0.301,0.823-0.301c0.223,0,0.445,0,0.588,0.152
		c0.224,0.074,0.395,0.316,0.541,0.533l0.149-0.611h0.586l-0.522,2.479c-0.063,0.312-0.063,0.533-0.063,0.533
		c0,0.072,0,0.148,0.063,0.148c0,0.074,0.073,0.074,0.15,0.074c0.15,0,0.302-0.074,0.536-0.223c0.295-0.148,0.517-0.459,0.665-0.756
		c0.152-0.291,0.218-0.686,0.218-0.975c0-0.447-0.065-0.811-0.292-1.129c-0.222-0.363-0.52-0.66-0.977-0.881
		c-0.364-0.164-0.831-0.311-1.345-0.311c-0.519,0-1.053,0.146-1.569,0.383c-0.458,0.299-0.831,0.656-1.044,1.201
		c-0.298,0.438-0.37,0.951-0.37,1.559c0,0.598,0.072,1.131,0.37,1.49c0.213,0.461,0.586,0.76,1.119,0.98
		c0.441,0.227,1.049,0.301,1.566,0.301c0.687,0,1.196-0.074,1.658-0.301c0.369-0.221,0.738-0.52,0.958-0.828h0.605
		c-0.071,0.309-0.288,0.533-0.605,0.828c-0.293,0.227-0.663,0.441-1.049,0.607c-0.445,0.15-0.955,0.227-1.492,0.227
		c-0.593,0-1.053-0.076-1.494-0.227c-0.445-0.07-0.828-0.307-1.191-0.607c-0.297-0.295-0.519-0.607-0.685-0.98
		c-0.224-0.434-0.297-0.893-0.297-1.41c0-0.613,0.073-1.201,0.297-1.713c0.312-0.682,0.759-1.127,1.269-1.51
		c0.534-0.375,1.197-0.523,2.026-0.523c0.612,0,1.122,0.148,1.567,0.373c0.532,0.223,0.908,0.609,1.123,1.115
		c0.243,0.375,0.384,0.836,0.384,1.355c0,0.684-0.235,1.271-0.751,1.879c-0.445,0.434-0.899,0.732-1.415,0.732
		c-0.149,0-0.296-0.072-0.371-0.146c-0.17,0-0.243-0.074-0.319-0.152C14.435,13.193,14.435,13.045,14.435,12.898L14.435,12.898z
		 M12.65,11.92L12.65,11.92c0,0.371,0.074,0.607,0.222,0.828c0.151,0.15,0.367,0.223,0.516,0.223c0.162,0,0.312,0,0.459-0.072
		c0.148-0.074,0.298-0.223,0.445-0.371c0.143-0.162,0.219-0.385,0.292-0.607c0.17-0.291,0.17-0.514,0.17-0.76
		c0-0.365-0.096-0.588-0.243-0.734c-0.146-0.217-0.366-0.291-0.59-0.291c-0.147,0-0.295,0-0.459,0.141
		c-0.146,0.074-0.289,0.15-0.37,0.371c-0.149,0.148-0.22,0.365-0.294,0.588C12.725,11.477,12.65,11.693,12.65,11.92L12.65,11.92z
		 M18.495,21.645L18.495,21.645H8.161H6.518c-0.46,0-0.829,0.148-1.053,0.459H5.454l-0.025,0.023v0.014l-0.013,0.025H5.39
		l-0.01,0.01v0.027l-0.027,0.014L5.339,22.24c-0.222,0.275-0.334,0.584-0.334,0.992c0,0.371,0.172,0.732,0.46,1.031
		c0.224,0.309,0.593,0.457,1.053,0.457h11.978c-0.313-0.457-0.537-0.977-0.537-1.488C17.958,22.625,18.182,22.104,18.495,21.645
		L18.495,21.645z M5.227,21.277L5.227,21.277c0.35-0.236,0.735-0.371,1.215-0.371h0.027h0.013h0.036H7.4V0.992H5.005V21.42
		c0.074-0.053,0.15-0.094,0.2-0.143H5.227z M8.161,0.992L8.161,0.992v19.914h11.602V0.992H8.161z"/>
</g>
</svg>
