<?xml version="1.0" encoding="utf-8"?>
<!-- Generator: Adobe Illustrator 16.0.0, SVG Export Plug-In . SVG Version: 6.00 Build 0)  -->
<!DOCTYPE svg PUBLIC "-//W3C//DTD SVG 1.1 Tiny//EN" "http://www.w3.org/Graphics/SVG/1.1/DTD/svg11-tiny.dtd">
<svg version="1.1" baseProfile="tiny" id="Layer_1" xmlns="http://www.w3.org/2000/svg" xmlns:xlink="http://www.w3.org/1999/xlink"
	 x="0px" y="0px" width="24.774px" height="25.625px" viewBox="0 0 24.774 25.625" xml:space="preserve">
<g>
	<path fill-rule="evenodd" fill="#CCCCCC" d="M17.571,4.662l-2.662-2.663v2.663H17.571z M23.108,10.875L23.108,10.875l0.582-0.518
		l-2.727-2.732L20.446,8.19L23.108,10.875z M22.614,11.438L22.614,11.438l-2.732-2.732l-8.666,8.717l2.68,2.659L22.614,11.438z
		 M19.911,7.658L19.911,7.658l1.053-1.046l3.811,3.745l-1.1,1.068l0.016,0.014l-0.281,0.287l-4.541,4.504v8.768H0.333V0.628h0.359
		h13.773l0.051,0.034c0.094,0,0.178,0.039,0.234,0.111l0.781,0.782l3.336,3.107v0.42v0.021v3.542
		c0.34-0.327,0.668-0.684,1.014-1.021L19.911,7.658z M11.874,20.878L11.874,20.878l-1.434-1.434l-0.145,1.576L11.874,20.878z
		 M10.44,18.29L10.44,18.29l3.086,3.178L9.421,21.89l0.43-4.118L10.44,18.29z M18.063,17.027L18.063,17.027l-4.168,4.138
		l-3.764-3.742c2.648-2.648,5.293-5.295,7.932-7.971V5.456h-3.525c-0.215,0-0.426-0.143-0.426-0.353V1.426H1.063v22.845h17V17.027z"
		/>
</g>
</svg>
